<?xml version="1.0" encoding="utf-8"?>
<!-- Generator: Adobe Illustrator 25.0.0, SVG Export Plug-In . SVG Version: 6.00 Build 0)  -->
<svg version="1.1" id="Слой_1" xmlns="http://www.w3.org/2000/svg" xmlns:xlink="http://www.w3.org/1999/xlink" x="0px" y="0px"
	 viewBox="0 0 2500 1080" style="enable-background:new 0 0 2500 1080;" xml:space="preserve">
<style type="text/css">
	.st0{fill-rule:evenodd;clip-rule:evenodd;fill:#DDE0E4;}
</style>
<path class="st0" d="M1538.04,857.01c-132.82,122.86-325.62,188.49-491.4,188.49c-232.69,0-442.09-107.93-600.44-287.71
	c-12.39-14-1.24-33.28,13.63-22.39c170.99,124.73,382.37,200,600.68,200c147.2,0,309.26-38.26,458.19-117.57
	C1541.26,806,1560.09,836.48,1538.04,857.01"/>
<path class="st0" d="M1575.95,777.39c-16.85-27.37-112.26-12.75-155.13-6.53c-13.13,1.87-15.12-12.13-3.22-22.39
	c76.08-67.18,200.72-47.59,215.1-25.19c14.62,22.71-3.72,179.47-75.09,254.43c-10.9,11.51-21.31,5.29-16.6-9.95
	C1557.12,917.35,1593.05,804.76,1575.95,777.39"/>
<path class="st0" d="M1423.8,274.75v-65.32c0-9.95,5.95-16.48,13.13-16.48h232.69c7.43,0,13.38,6.84,13.38,16.48v55.99
	c0,9.33-6.44,21.77-17.59,41.06l-120.68,216.17c44.85-1.24,92.18,7.15,132.82,35.77c9.17,6.53,11.65,15.86,12.39,25.5v69.36
	c0,9.64-8.43,20.53-17.1,14.93c-71.62-46.97-166.77-52.25-245.82,0.62c-8.18,5.6-16.6-5.6-16.6-14.93v-66.25
	c0-10.58,0-28.62,8.67-44.79l139.76-251.32h-121.67C1429.74,291.24,1423.8,284.4,1423.8,274.75 M575.06,681.9h-70.87
	c-6.69-0.62-12.14-6.84-12.64-15.24V210.68c0-9.02,6.2-16.48,13.63-16.48h66.16c6.94,0.31,12.39,7.15,12.89,15.24v59.72h1.24
	c17.35-57.54,49.56-84.6,93.18-84.6c44.36,0,72.11,26.75,91.94,84.6c17.1-57.54,56-84.6,97.88-84.6c29.74,0,62.2,15.24,82.02,49.77
	c22.3,38.26,17.84,94.24,17.84,143.08V665.1c0,9.02-6.2,16.48-13.63,16.48h-71.12c-7.19-0.62-12.64-7.78-12.64-16.48V423.43
	c0-19.28,1.49-67.18-1.98-85.53c-5.2-30.48-21.06-39.19-41.63-39.19c-17.1,0-34.94,14.31-42.37,37.32
	c-7.19,23.02-6.69,61.58-6.69,87.4V665.1c0,9.02-6.2,16.48-13.63,16.48h-70.62c-7.19-0.62-12.64-7.78-12.64-16.48V423.43
	c0-51.01,6.69-125.66-43.61-125.66c-50.8,0-48.82,73.09-48.82,125.66V665.1C588.69,674.43,582.49,681.9,575.06,681.9
	 M1883.48,184.55c105.07,0,161.82,113.22,161.82,257.23c0,139.03-62.94,249.45-161.82,249.45c-103.09,0-159.34-113.22-159.34-254.43
	C1724.14,294.97,1781.13,184.55,1883.48,184.55 M1883.97,277.87c-52.29,0-55.51,89.27-55.51,144.94s-0.74,174.8,54.77,174.8
	c54.77,0,57.49-96.11,57.49-154.58c0-38.57-1.24-84.6-10.66-120.99C1922.38,290,1906.52,277.87,1883.97,277.87 M2181.59,681.9
	h-70.38c-7.19-0.62-12.64-7.78-12.64-16.48V209.13c0.5-8.4,6.44-14.93,13.63-14.93h65.67c6.2,0.31,11.15,5.6,12.64,12.75v69.67h1.24
	c19.82-62.52,47.58-92.07,96.4-92.07c31.72,0,62.7,14.31,82.77,53.81c18.59,36.39,18.59,97.98,18.59,141.83v287.09
	c-0.74,8.09-6.69,14.31-13.63,14.31H2305c-6.44-0.62-11.89-6.53-12.64-14.31V419.7c0-49.77,4.46-122.86-44.36-122.86
	c-17.35,0-32.96,14.62-40.89,36.39c-9.91,27.99-11.15,55.68-11.15,86.47v245.72C2195.22,674.43,2189.27,681.9,2181.59,681.9
	 M1238.44,463.86c0,34.52,0.74,63.45-13.13,94.24c-11.15,24.88-29.24,40.43-49.07,40.43c-27.26,0-43.12-26.13-43.12-64.38
	c0-75.58,54.02-89.58,105.32-89.58V463.86 M1309.81,680.66c-4.71,5.29-11.4,5.6-16.6,2.18c-23.54-24.57-27.75-35.77-40.64-59.1
	c-38.91,49.77-66.41,64.7-116.72,64.7c-59.72,0-106.06-46.03-106.06-138.41c0-72.16,30.98-121.3,75.58-145.25
	c38.41-21.15,92.18-24.88,133.07-30.79v-11.51c0-21.15,1.24-46.03-8.67-64.38c-8.67-16.48-25.03-23.02-39.65-23.02
	c-27.01,0-51.05,17.42-56.75,53.5c-1.24,8.09-5.95,15.86-12.39,16.17l-68.64-9.33c-5.7-1.56-12.14-7.46-10.66-18.66
	c15.61-104.51,90.95-135.92,158.35-135.92c34.45,0,79.55,11.51,106.56,44.17c34.45,40.43,31.22,94.24,31.22,152.72v138.41
	c0,41.68,13.63,59.72,26.76,82.42c4.46,8.09,5.45,17.73-0.25,23.64C1349.7,636.8,1323.93,665.1,1309.81,680.66L1309.81,680.66
	 M310.15,463.86c0,34.52,0.74,63.45-13.13,94.24c-11.15,24.88-28.99,40.43-49.07,40.43c-27.26,0-43.12-26.13-43.12-64.38
	c0-75.58,54.02-89.58,105.32-89.58V463.86 M381.52,680.66c-4.71,5.29-11.4,5.6-16.6,2.18c-23.54-24.57-27.75-35.77-40.64-59.1
	c-38.91,49.77-66.41,64.7-116.72,64.7c-59.47,0-106.06-46.03-106.06-138.41c0-72.16,31.22-121.3,75.58-145.25
	c38.41-21.15,92.18-24.88,133.07-30.79v-11.51c0-21.15,1.24-46.03-8.67-64.38c-8.67-16.48-25.28-23.02-39.65-23.02
	c-27.01,0-51.05,17.42-57,53.5c-1.24,8.09-5.95,15.86-12.14,16.17l-68.64-9.33c-5.7-1.56-12.14-7.46-10.66-18.66
	c15.86-104.51,90.95-135.92,158.35-135.92c34.45,0,79.55,11.51,106.56,44.17c34.45,40.43,31.22,94.24,31.22,152.72v138.41
	c0,41.68,13.63,59.72,26.76,82.42c4.46,8.09,5.7,17.73-0.25,23.64C421.67,636.8,395.89,665.1,381.52,680.66L381.52,680.66"/>
</svg>
