<?xml version="1.0" encoding="utf-8"?>
<!-- Generator: Adobe Illustrator 25.0.0, SVG Export Plug-In . SVG Version: 6.00 Build 0)  -->
<svg version="1.1" id="Слой_1" xmlns="http://www.w3.org/2000/svg" xmlns:xlink="http://www.w3.org/1999/xlink" x="0px" y="0px"
	 viewBox="0 0 2500 1080" style="enable-background:new 0 0 2500 1080;" xml:space="preserve">
<style type="text/css">
	.st0{fill:#DDE0E4;}
</style>
<g>
	<path class="st0" d="M382.26,470.42c-19.18,0-34.31,21.36-34.31,47.94s15.47,47.94,34.31,47.94c19.18,0,34.31-21.36,34.31-47.94
		S401.1,470.42,382.26,470.42z M259.47,470.42c-19.18,0-34.31,21.36-34.31,47.94s15.47,47.94,34.31,47.94
		c19.18,0,34.31-21.36,34.31-47.94C294.12,491.77,278.64,470.42,259.47,470.42z"/>
	<path class="st0" d="M545.76,107.8H94.96C56.95,107.8,26,147.9,26,197.14v584.02c0,49.25,30.95,89.35,68.96,89.35h381.49
		l-17.83-79.76l43.06,51.43l40.71,48.38l72.66,81.5V197.14C614.72,147.9,583.77,107.8,545.76,107.8z M415.9,672.21
		c0,0-12.11-18.74-22.2-34.87c44.07-16.13,60.89-51.43,60.89-51.43c-13.79,11.77-26.91,20.05-38.69,25.71
		c-16.82,9.15-32.97,14.82-48.78,18.74c-32.3,7.85-61.9,5.67-87.13-0.44c-19.18-4.79-35.66-11.33-49.45-18.74
		c-7.74-3.92-16.15-8.72-24.56-14.82c-1.01-0.87-2.02-1.31-3.03-2.18c-0.67-0.44-1.01-0.87-1.35-0.87
		c-6.06-4.36-9.42-7.41-9.42-7.41s16.15,34.43,58.87,50.99c-10.09,16.56-22.54,35.74-22.54,35.74
		c-74.35-3.05-102.61-65.81-102.61-65.81c0-139.03,48.44-251.91,48.44-251.91c48.44-46.63,94.2-45.33,94.2-45.33l3.36,5.23
		c-60.55,22.23-88.14,56.66-88.14,56.66s7.4-5.23,19.85-12.2c36-20.48,64.59-25.71,76.37-27.46c2.02-0.44,3.7-0.87,5.72-0.87
		c20.52-3.49,43.73-4.36,67.96-0.87c31.96,4.79,66.27,17,101.26,41.4c0,0-26.58-32.69-83.77-54.92l4.71-6.97
		c0,0,46.09-1.31,94.2,45.33c0,0,48.44,112.88,48.44,251.91C518.51,606.4,490.25,669.16,415.9,672.21z M923.88,294.34H812.19V456.9
		l74.35,86.73V385.86h39.7c25.23,0,37.68,15.69,37.68,40.97v120.73c0,25.28-11.77,42.28-37.68,42.28H811.86v91.96h111.69
		c59.88,0.44,116.06-38.35,116.06-127.27V424.65C1039.94,334,983.76,294.34,923.88,294.34L923.88,294.34z M1509.24,554.53V421.17
		c0-47.94,66.61-58.84,86.79-10.9l61.56-32.25c-24.22-68.86-68.29-88.91-104.96-88.91c-59.88,0-119.09,44.89-119.09,132.06v133.37
		c0,88.04,59.21,132.06,117.74,132.06c37.68,0,82.76-23.97,107.65-86.73L1593,560.63C1576.86,614.24,1509.24,601.17,1509.24,554.53
		L1509.24,554.53z M1305.71,439.47c-23.21-6.54-38.69-17.43-39.7-36.17c1.35-44.89,54.83-46.63,86.12-3.49l49.45-49.25
		c-30.95-48.81-65.94-61.89-101.93-61.89c-54.84,0-107.99,40.1-107.99,115.93c0,73.66,43.73,113.32,91.84,122.91
		c24.56,4.36,51.81,17,51.13,38.79c-2.02,41.4-67.96,39.23-97.9-7.85l-47.77,57.97c27.92,46.63,65.94,70.17,101.6,70.17
		c54.84,0,115.73-40.97,118.08-115.93C1412.01,476.08,1358.86,452.11,1305.71,439.47L1305.71,439.47z M1080.31,681.36h75.36V294.34
		h-75.36V681.36z M2350.94,294.34h-111.69V456.9l74.35,86.73V385.86h39.7c25.23,0,37.68,15.69,37.68,40.97v120.73
		c0,25.28-11.77,42.28-37.68,42.28h-114.38v91.96h112.02c59.88,0.44,116.06-38.35,116.06-127.27V424.65
		C2467,334,2410.82,294.34,2350.94,294.34z M1802.92,289.11c-61.9,0-123.46,43.58-123.46,132.93V554.1
		c0,88.48,61.9,132.93,124.14,132.93c61.9,0,123.46-44.46,123.46-132.93V422.04C1927.06,333.13,1864.82,289.11,1802.92,289.11z
		 M1851.37,554.1c0,27.89-24.22,42.28-48.11,42.28c-24.22,0-48.44-13.51-48.44-42.28V422.04c0-28.33,23.55-43.58,47.1-43.58
		c24.56,0,49.45,13.51,49.45,43.58V554.1z M2197.53,422.04c-1.68-90.65-49.45-127.26-111.02-127.26h-119.43V681.8h76.37V558.89
		h13.46l69.3,122.91h94.2L2139,548.87C2175,534.05,2197.53,493.52,2197.53,422.04z M2087.86,474.34h-44.41v-88.48h44.41
		C2135.3,385.86,2135.3,474.34,2087.86,474.34z"/>
</g>
</svg>
