<?xml version="1.0" encoding="utf-8"?>
<!-- Generator: Adobe Illustrator 25.0.0, SVG Export Plug-In . SVG Version: 6.00 Build 0)  -->
<svg version="1.1" id="Слой_1" xmlns="http://www.w3.org/2000/svg" xmlns:xlink="http://www.w3.org/1999/xlink" x="0px" y="0px"
	 viewBox="0 0 2500 1080" style="enable-background:new 0 0 2500 1080;" xml:space="preserve">
<style type="text/css">
	.st0{fill:#DDE0E4;}
</style>
<path class="st0" d="M452.65,943.27c-34.36,8.46-69.34,10.94-105.78,17.75L236.44,508.26v472.17
	c-34.36,5.06-65.79,11.87-98.44,18.58V134.14h91.84l125.59,490.74V134.14h97.34v809.13H452.65z M642.8,450.77
	c37.3,0,94.77-2.58,129.14-2.58v135.2c-42.8,0-92.94,0-129.14,2.58v200.94c56.86-5.06,113.61-11.87,170.84-14.35v130.14
	l-267.32,29.52V134.14h267.57v135.2H642.93v181.44H642.8z M1172.92,269.34h-100.28v621.71c-32.65,0-65.3,0-96.73,1.65V269.34H875.64
	v-135.2h297.04L1172.92,269.34z M1329.94,441.48h132.32v135.2h-132.32v306.73h-94.77V134.14h269.89v135.2h-175.12V441.48z
	 M1662.19,765.14c55.03,1.65,110.43,7.64,164.35,11.87v133.45c-86.33-7.64-172.79-15.17-260.84-17.75V134.14h96.73v631H1662.19z
	 M1907.87,919.63c30.82,2.58,63.47,5.06,94.77,10.11V134.14h-94.77V919.63z M2426,134.14l-122.65,411.27L2426,999
	c-36.2-6.71-72.52-16.1-108.71-24.46l-69.34-249.96l-70.56,229.84c-34.97-8.46-68.85-10.94-103.82-17.75l124.37-396.1
	l-112.63-406.42h103.82l63.47,227.26l67.63-227.26L2426,134.14L2426,134.14z"/>
</svg>
