<?xml version="1.0" encoding="utf-8"?>
<!-- Generator: Adobe Illustrator 25.0.0, SVG Export Plug-In . SVG Version: 6.00 Build 0)  -->
<svg version="1.1" id="Слой_1" xmlns="http://www.w3.org/2000/svg" xmlns:xlink="http://www.w3.org/1999/xlink" x="0px" y="0px"
	 viewBox="0 0 3000 1080" style="enable-background:new 0 0 3000 1080;" xml:space="preserve">
<style type="text/css">
	.st0{fill:#DDE0E4;}
</style>
<path class="st0" d="M446.5,982.6c-43.4,10.1-87.6,13-133.6,21.2L173.4,464v562.9c-43.4,6-83.2,14.2-124.4,22.1V18h115.9l158.7,585
	V18h122.9V982.6z M686.6,395.5c47.2,0,119.7-3.1,163.1-3.1v161.2c-54.1,0-117.4,0-163.1,3.1v239.6c71.8-6,143.5-14.2,215.8-17.1
	v155.1l-337.7,35.1V18h337.9v161.2H686.8v216.3H686.6z M1356.2,179.2h-126.6v741.1c-41.2,0-82.4,0-122.2,1.9V179.2H980.8V18H1356
	L1356.2,179.2z M1554.6,384.4h167.1v161.2h-167.1v365.6h-119.7V18h340.9v161.2h-221.2V384.4z M1974.2,770.2
	c69.5,1.9,139.5,9.1,207.6,14.2v159c-109-9.1-218.2-18.1-329.5-21.2V18h122.2v752.2H1974.2z M2284.5,954.4c39,3.1,80.2,6,119.7,12
	V18h-119.7V954.4z M2939,18l-154.9,490.3L2939,1049c-45.7-8-91.6-19.2-137.3-29.1l-87.6-298l-89.1,274
	c-44.2-10.1-86.9-13-131.1-21.2L2651,502.4L2508.7,18h131.1l80.2,270.9L2805.4,18H2939z"/>
</svg>
