<?xml version="1.0" encoding="utf-8"?>
<!-- Generator: Adobe Illustrator 25.0.0, SVG Export Plug-In . SVG Version: 6.00 Build 0)  -->
<svg version="1.1" id="Слой_1" xmlns="http://www.w3.org/2000/svg" xmlns:xlink="http://www.w3.org/1999/xlink" x="0px" y="0px"
	 viewBox="0 0 1920 1080" style="enable-background:new 0 0 1920 1080;" xml:space="preserve">
<style type="text/css">
	.st0{fill:#DDE0E4;}
</style>
<path class="st0" d="M285.3,904c-28.1,8.2-56.7,10.6-86.5,17.2l-90.3-438.7V940c-28.1,4.9-53.8,11.5-80.5,18V120h75.1l102.7,475.5
	V120h79.6V904z M440.8,426.8c30.5,0,77.5-2.5,105.6-2.5v131c-35,0-76,0-105.6,2.5v194.7c46.5-4.9,92.9-11.5,139.7-13.9v126.1
	l-218.6,28.6V120h218.8v131H440.9v175.8H440.8z M874.3,251h-82v602.4c-26.7,0-53.4,0-79.1,1.6V251h-82V120h242.9L874.3,251z
	 M1002.7,417.8h108.2v131h-108.2V846h-77.5V120h220.7v131h-143.2V417.8z M1274.4,731.4c45,1.6,90.3,7.4,134.4,11.5v129.3
	c-70.6-7.4-141.3-14.7-213.3-17.2V120h79.1v611.4H1274.4z M1475.3,881.1c25.2,2.5,51.9,4.9,77.5,9.8V120h-77.5V881.1z M1899,120
	l-100.3,398.5L1899,958c-29.6-6.5-59.3-15.6-88.9-23.7l-56.7-242.2l-57.7,222.7c-28.6-8.2-56.3-10.6-84.9-17.2l101.7-383.8
	L1620.4,120h84.9l51.9,220.2l55.3-220.2H1899z"/>
</svg>
