<?xml version="1.0" encoding="utf-8"?>
<!-- Generator: Adobe Illustrator 25.0.0, SVG Export Plug-In . SVG Version: 6.00 Build 0)  -->
<svg version="1.1" id="Слой_1" xmlns="http://www.w3.org/2000/svg" xmlns:xlink="http://www.w3.org/1999/xlink" x="0px" y="0px"
	 viewBox="0 0 2500 1080" style="enable-background:new 0 0 2500 1080;" xml:space="preserve">
<style type="text/css">
	.st0{fill-rule:evenodd;clip-rule:evenodd;fill:#DDE0E4;}
	.st1{fill:#DDE0E4;}
</style>
<g transform="translate(-14.043 -10.043)">
	<ellipse class="st0" cx="2190.44" cy="441.31" rx="47.74" ry="49.18"/>
	<path class="st1" d="M1508.61,651.02c23.42,0,36.93-18.09,36.03-35.73c-0.44-9.28-1.35-15.32-2.25-19.95
		c-14.41-64.02-64.85-111.35-124.75-111.35c-71.15,0-128.8,66.35-128.8,148s57.64,148,128.8,148c44.59,0,76.57-16.7,99.53-43.15
		c11.26-12.99,9.01-32.94-4.51-42.69c-11.26-7.89-25.22-5.1-35.58,3.71c-9.91,8.82-28.82,26.45-59.45,26.45
		c-36.02,0-66.64-32.02-73.4-74.24h164.37L1508.61,651.02z M1417.2,540.13c32.42,0,60.35,25.98,70.71,61.7h-141.41
		C1356.85,565.65,1384.77,540.13,1417.2,540.13z M1291.55,513.22c0-13.91-9.91-25.05-22.51-27.37
		c-39.19-6.03-76.11,8.81-97.27,36.19v-3.72c0-17.17-13.52-27.83-27.02-27.83c-14.87,0-27.02,12.52-27.02,27.83v227.34
		c0,14.85,10.8,27.84,25.22,28.76c15.76,0.93,28.83-11.6,28.83-27.84V629.21c0-51.96,37.83-94.65,90.06-88.61h5.41
		C1280.74,539.67,1291.55,527.6,1291.55,513.22L1291.55,513.22z M2217.45,542.92c0-15.32-12.16-27.84-27.01-27.84
		c-14.87,0-27.02,12.52-27.02,27.84v203.67c0,15.32,12.16,27.84,27.02,27.84c14.86,0,27.01-12.52,27.01-27.84V542.92z
		 M1815.75,388.89c0-15.32-12.16-27.84-27.02-27.84c-14.86,0-27.01,12.52-27.01,27.84v123.88c-18.47-19.03-41.43-28.31-68.91-28.31
		c-71.15,0-128.8,66.35-128.8,148c0,81.66,57.64,148,128.8,148c27.47,0,50.9-9.75,69.35-28.77c2.25,13,13.52,22.74,26.57,22.74
		c14.87,0,27.02-12.52,27.02-27.84L1815.75,388.89z M1693.25,725.25c-41.43,0-74.76-41.29-74.76-92.79
		c0-51.03,33.33-92.79,74.76-92.79s74.76,41.29,74.76,92.79S1734.24,725.25,1693.25,725.25z M2097.66,388.89
		c0-15.32-12.16-27.84-27.02-27.84c-14.86,0-27.02,12.52-27.02,27.84v123.88c-18.46-19.03-41.43-28.31-68.9-28.31
		c-71.15,0-128.8,66.35-128.8,148c0,81.66,57.64,148,128.8,148c27.47,0,50.89-9.75,69.35-28.77c2.25,13,13.51,22.74,26.57,22.74
		c14.87,0,27.02-12.52,27.02-27.84V388.89z M1974.72,725.25c-41.43,0-74.75-41.29-74.75-92.79c0-51.03,33.32-92.79,74.75-92.79
		c41.43,0,74.76,41.29,74.76,92.79S2016.15,725.25,1974.72,725.25z M2354.35,747.06V540.13h23.87c12.61,0,23.86-9.75,24.76-23.2
		c0.91-14.38-10.35-26.44-23.86-26.44h-24.77v-38.98c0-14.85-10.8-27.84-25.22-28.76c-15.76-0.93-28.82,11.6-28.82,27.84v40.36
		h-22.52c-12.61,0-23.87,9.75-24.76,23.2c-0.91,14.38,10.36,26.45,23.87,26.45h22.97v206.92c0,15.31,12.16,27.83,27.02,27.83
		C2342.65,774.43,2354.35,762.36,2354.35,747.06L2354.35,747.06z"/>
</g>
<g transform="translate(-14.043 -10.043)">
	<ellipse class="st0" cx="589.01" cy="562.4" rx="377.39" ry="388.79"/>
	<path class="st0" d="M93.74,86.76"/>
</g>
</svg>
