<?xml version="1.0" encoding="utf-8"?>
<!-- Generator: Adobe Illustrator 25.0.0, SVG Export Plug-In . SVG Version: 6.00 Build 0)  -->
<svg version="1.1" id="Слой_1" xmlns="http://www.w3.org/2000/svg" xmlns:xlink="http://www.w3.org/1999/xlink" x="0px" y="0px"
	 viewBox="0 0 2500 1080" style="enable-background:new 0 0 2500 1080;" xml:space="preserve">
<style type="text/css">
	.st0{fill:#DDE0E4;}
</style>
<path class="st0" d="M413.31,99C213.22,99,51,302.37,51,553.24c0,250.9,162.22,454.26,362.31,454.26
	c200.1,0,362.31-203.36,362.31-454.26c0-250.85-162.2-454.22-362.31-454.22L413.31,99z M579.46,754.15
	c-6.51,13.38-20.41,17.57-31.05,9.42c-85.08-65.19-192.17-79.92-318.28-43.8c-12.15,3.49-24.27-6.06-27.04-21.29
	c-2.78-15.24,4.8-30.42,16.99-33.9c138.01-39.56,256.4-22.53,351.9,50.63c10.64,8.19,14.02,25.6,7.48,38.95L579.46,754.15z
	 M623.81,630.48c-8.19,16.67-25.58,21.9-38.86,11.66c-97.37-75.04-245.84-96.78-361.03-52.94c-14.94,5.66-30.72-4.9-35.25-23.6
	c-4.5-18.73,3.92-38.47,18.84-44.17c131.58-50.06,295.15-25.81,406.99,60.36C627.78,592.05,631.98,613.85,623.81,630.48
	L623.81,630.48L623.81,630.48z M627.62,501.68c-116.79-86.96-309.43-94.95-420.92-52.53c-17.9,6.81-36.84-5.86-42.26-28.31
	c-5.43-22.46,4.67-46.18,22.59-53c127.98-48.71,340.73-39.3,475.17,60.76c16.1,11.98,21.39,38.06,11.84,58.22
	C664.52,507.02,643.67,513.67,627.62,501.68L627.62,501.68z M1036.72,518.35c-62.56-18.7-73.69-31.83-73.69-59.41
	c0-26.06,19.57-43.59,48.67-43.59c28.21,0,56.18,13.32,85.5,40.73c0.89,0.83,2,1.16,3.09,0.94c1.09-0.21,2.06-0.96,2.7-2.09
	l30.54-53.98c1.25-2.22,0.91-5.29-0.78-6.99c-34.9-35.11-74.2-52.18-120.14-52.18c-67.54,0-114.72,50.82-114.72,123.53
	c0,77.97,40.7,105.58,111.03,126.9c59.86,17.29,69.96,31.77,69.96,57.66c0,28.69-20.43,46.52-53.31,46.52
	c-36.52,0-66.3-15.42-99.62-51.6c-0.83-0.9-1.96-1.3-3.01-1.23c-1.1,0.11-2.11,0.75-2.81,1.81l-34.25,51.1
	c-1.44,2.12-1.25,5.29,0.41,7.12c38.76,43.39,86.44,66.31,137.89,66.31c72.78,0,119.82-49.86,119.82-127.03
	c0.13-65.15-30.98-101.22-107.17-124.46L1036.72,518.35L1036.72,518.35z M1308.68,441c-31.55,0-57.42,15.58-78.76,47.5v-35.93
	c0-2.84-1.83-5.15-4.09-5.15h-56.01c-2.26,0-4.09,2.31-4.09,5.15v399.24c0,2.84,1.83,5.15,4.09,5.15h56.01
	c2.26,0,4.09-2.31,4.09-5.15V725.78c21.34,30.03,47.22,44.7,78.76,44.7c58.62,0,117.96-56.58,117.96-164.73
	c0.09-108.18-59.27-164.77-117.9-164.77L1308.68,441L1308.68,441z M1361.51,605.76c0,55.07-27.06,93.5-65.8,93.5
	c-38.3,0-67.19-40.18-67.19-93.5c0-53.32,28.89-93.5,67.19-93.5C1333.83,512.25,1361.52,551.57,1361.51,605.76L1361.51,605.76
	L1361.51,605.76z M1578.74,441c-75.49,0-134.63,72.88-134.63,165.94c0,92.04,58.74,164.16,133.71,164.16
	c75.76,0,135.08-72.64,135.08-165.34c0-92.38-58.93-164.75-134.16-164.75L1578.74,441L1578.74,441z M1578.74,699.81
	c-40.15,0-70.43-40.45-70.43-94.08c0-53.86,29.23-92.94,69.5-92.94c40.41,0,70.89,40.45,70.89,94.12
	C1648.7,660.76,1619.28,699.81,1578.74,699.81L1578.74,699.81L1578.74,699.81z M1874.11,447.42h-61.64v-79.01
	c0-2.83-1.83-5.14-4.09-5.14h-56.01c-2.27,0-4.11,2.31-4.11,5.14v79.01h-26.93c-2.25,0-4.08,2.31-4.08,5.15v60.36
	c0,2.83,1.83,5.15,4.08,5.15h26.93v156.17c0,63.11,25.05,95.11,74.47,95.11c20.09,0,36.76-5.2,52.47-16.37
	c1.28-0.9,2.07-2.62,2.07-4.45v-57.48c0-1.77-0.74-3.45-1.95-4.38c-1.22-0.96-2.74-1.01-3.99-0.23
	c-10.79,6.81-21.22,9.95-32.88,9.95c-17.97,0-25.99-10.23-25.99-33.16V518.1h61.64c2.26,0,4.08-2.31,4.08-5.15V452.6
	c0.09-2.84-1.73-5.15-4.02-5.15L1874.11,447.42z M2088.87,447.73v-9.7c0-28.55,8.73-41.28,28.31-41.28c11.68,0,21.06,2.91,31.56,7.3
	c1.29,0.51,2.64,0.26,3.7-0.72c1.08-0.97,1.69-2.53,1.69-4.18v-59.18c0-2.26-1.16-4.26-2.9-4.93c-11.1-4.14-25.3-8.39-46.56-8.39
	c-51.74,0-79.08,36.53-79.08,105.59v14.86h-26.91c-2.26,0-4.11,2.31-4.11,5.14v60.67c0,2.83,1.85,5.15,4.11,5.15h26.91v240.89
	c0,2.84,1.83,5.15,4.08,5.15h56.01c2.26,0,4.11-2.31,4.11-5.15V518.09h52.3l80.11,240.83c-9.09,25.3-18.04,30.34-30.25,30.34
	c-9.87,0-20.26-3.69-30.89-10.98c-1-0.69-2.18-0.8-3.26-0.38c-1.07,0.47-1.97,1.47-2.42,2.77l-18.98,52.22
	c-0.9,2.47-0.13,5.37,1.77,6.64c19.82,13.46,37.71,19.2,59.82,19.2c41.36,0,64.22-24.15,84.37-89.14l97.18-314.83
	c0.49-1.58,0.34-3.37-0.43-4.78c-0.77-1.39-2.01-2.23-3.37-2.23h-58.31c-1.75,0-3.31,1.39-3.88,3.45l-59.74,213.92l-65.43-214.06
	c-0.6-1.99-2.13-3.31-3.82-3.31h-95.7L2088.87,447.73L2088.87,447.73z M1964.36,447.42h-56.01c-2.26,0-4.11,2.31-4.11,5.15v306.39
	c0,2.84,1.84,5.15,4.11,5.15h56.01c2.26,0,4.11-2.31,4.11-5.15V452.59c0.01-2.84-1.82-5.14-4.09-5.15c-0.01,0-0.02,0-0.02,0
	L1964.36,447.42z M1936.67,307.91c-22.19,0-40.2,22.52-40.2,50.34c0,27.84,18.01,50.39,40.2,50.39c22.18,0,40.17-22.55,40.17-50.39
	c0-27.82-18-50.34-40.15-50.34L1936.67,307.91L1936.67,307.91z M2427.37,545.93c-22.17,0-39.42-22.32-39.42-49.43
	s17.47-49.68,39.63-49.68c22.17,0,39.42,22.32,39.42,49.4C2467,523.33,2449.52,545.93,2427.37,545.93L2427.37,545.93z
	 M2427.59,451.74c-20.19,0-35.47,20.12-35.47,44.77c0,24.63,15.17,44.48,35.26,44.48c20.19,0,35.48-20.11,35.48-44.77
	c0-24.63-15.19-44.48-35.26-44.48H2427.59L2427.59,451.74z M2436.33,501.3l11.15,19.57h-9.4l-10.04-17.95h-8.63v17.95h-7.87V469
	h18.45c9.61,0,15.93,6.17,15.93,16.55c0.04,8.51-3.89,13.7-9.56,15.76L2436.33,501.3L2436.33,501.3z M2429.67,477.9h-10.26v16.41
	h10.26c5.12,0,8.18-3.14,8.18-8.21C2437.85,480.76,2434.78,477.9,2429.67,477.9L2429.67,477.9L2429.67,477.9z"/>
</svg>
